<svg xmlns="http://www.w3.org/2000/svg" xmlns:xlink="http://www.w3.org/1999/xlink" width="1000" zoomAndPan="magnify" viewBox="0 0 750 749.999995" height="1000" preserveAspectRatio="xMidYMid meet" version="1.0"><defs><g/><clipPath id="47c644d036"><path d="M 443 91 L 648 91 L 648 195.21875 L 443 195.21875 Z M 443 91 " clip-rule="nonzero"/></clipPath></defs><g clip-path="url(#47c644d036)"><path fill="#000000" d="M 640.867188 189.496094 L 647.625 174.324219 L 634.984375 181.09375 C 653.257812 152.25 636.113281 91.171875 636.113281 91.171875 C 619.59375 102.960938 571.410156 148.738281 571.035156 148.863281 C 562.902344 147.109375 554.515625 146.230469 546.007812 146.105469 C 537.371094 146.230469 528.988281 147.234375 520.976562 148.863281 C 520.601562 148.738281 472.421875 102.960938 455.902344 91.171875 C 455.902344 91.171875 438.757812 152.25 457.027344 181.09375 L 444.261719 174.195312 L 451.019531 189.371094 L 443.886719 185.859375 L 448.269531 195.015625 L 462.660156 195.015625 C 482.058594 172.566406 512.09375 157.894531 545.882812 157.265625 C 579.671875 157.894531 609.832031 172.566406 629.230469 195.015625 L 643.621094 195.015625 L 648 185.859375 Z M 495.074219 151.246094 L 488.0625 151.371094 L 494.195312 157.515625 C 494.195312 157.515625 494.070312 157.515625 494.070312 157.515625 C 483.933594 162.28125 474.671875 168.300781 466.414062 175.324219 C 466.164062 175.453125 466.039062 175.703125 465.789062 175.828125 C 456.277344 160.277344 458.53125 129.800781 462.160156 109.609375 C 472.796875 118.636719 485.5625 130.425781 496.574219 140.835938 L 481.054688 134.691406 Z M 625.976562 175.828125 C 625.851562 175.703125 625.597656 175.578125 625.347656 175.324219 C 617.089844 168.300781 607.828125 162.28125 597.691406 157.640625 C 597.691406 157.640625 597.566406 157.640625 597.566406 157.640625 L 603.699219 151.496094 L 596.691406 151.371094 L 610.457031 134.816406 L 594.9375 140.960938 C 605.953125 130.554688 618.714844 118.765625 629.355469 109.734375 C 633.234375 129.800781 635.484375 160.152344 625.976562 175.828125 Z M 625.976562 175.828125 " fill-opacity="1" fill-rule="nonzero"/></g><g fill="#000000" fill-opacity="1"><g transform="translate(96.398883, 645.40767)"><g><path d="M 453.953125 0 L 458.703125 -189.9375 L 439.703125 -189.9375 L 423.5625 -126.3125 C 408.363281 -68.0625 383.039062 -34.820312 347.59375 -26.59375 C 339.988281 -25.320312 332.707031 -24.6875 325.75 -24.6875 L 195.640625 -24.6875 L 195.640625 -545.125 L 275.40625 -545.125 L 275.40625 -569.8125 L 37.984375 -569.8125 L 37.984375 -545.125 L 113.96875 -545.125 L 113.96875 -24.6875 L 37.984375 -24.6875 L 37.984375 0 Z M 453.953125 0 "/></g></g></g><g fill="#000000" fill-opacity="1"><g transform="translate(397.581516, 408.161309)"><g><path d="M 23.546875 -122.40625 C 23.546875 -74.9375 41.003906 -39.429688 75.921875 -15.890625 C 97.492188 -1.367188 122.007812 5.890625 149.46875 5.890625 C 190.269531 5.890625 221.070312 -8.429688 241.875 -37.078125 C 246.570312 -43.742188 250.296875 -50.410156 253.046875 -57.078125 L 237.75 -62.375 C 223.226562 -31.382812 199.296875 -14.320312 165.953125 -11.1875 C 162.816406 -10.789062 159.675781 -10.59375 156.53125 -10.59375 C 128.675781 -10.59375 106.90625 -24.519531 91.21875 -52.375 C 79.445312 -73.5625 73.5625 -98.671875 73.5625 -127.703125 C 73.5625 -179.097656 87.097656 -213.425781 114.171875 -230.6875 C 125.546875 -237.75 138.097656 -241.28125 151.828125 -241.28125 C 173.015625 -241.28125 185.765625 -233.039062 190.078125 -216.5625 C 190.867188 -213.425781 191.847656 -208.519531 193.015625 -201.84375 C 195.367188 -186.15625 199.6875 -176.347656 205.96875 -172.421875 C 209.894531 -170.460938 214.210938 -169.285156 218.921875 -168.890625 C 232.253906 -168.109375 240.6875 -173.601562 244.21875 -185.375 C 245.007812 -188.125 245.40625 -190.671875 245.40625 -193.015625 C 245.40625 -213.023438 232.648438 -229.503906 207.140625 -242.453125 C 189.097656 -251.472656 169.484375 -255.984375 148.296875 -255.984375 C 95.722656 -255.984375 59.039062 -234.601562 38.25 -191.84375 C 28.445312 -171.445312 23.546875 -148.300781 23.546875 -122.40625 Z M 23.546875 -122.40625 "/></g></g></g></svg>