<svg width="157" height="42" viewBox="0 0 157 42" fill="none" xmlns="http://www.w3.org/2000/svg">
<path d="M7.6 29.28H13.72V34H2V8.12H7.6V29.28ZM25.615 8.12H31.215V29.12C31.215 32.64 29.5617 34.4 26.255 34.4H21.295C17.9883 34.4 16.335 32.64 16.335 29.12V8.12H21.935V29.6C21.935 29.8133 22.0017 30 22.135 30.16C22.295 30.32 22.4817 30.4 22.695 30.4H24.855C25.0683 30.4 25.2417 30.32 25.375 30.16C25.535 30 25.615 29.8133 25.615 29.6V8.12ZM50.0469 8.12L45.9269 21.04L50.5669 34H44.7269L42.0069 24.96L39.2869 34H33.4069L38.0469 21.04L34.0069 8.12H39.4469L42.0069 16.48L44.5669 8.12H50.0469ZM62.3338 8.12H67.9338V29.12C67.9338 32.64 66.2804 34.4 62.9738 34.4H58.0138C54.7071 34.4 53.0538 32.64 53.0538 29.12V8.12H58.6538V29.6C58.6538 29.8133 58.7204 30 58.8538 30.16C59.0138 30.32 59.2004 30.4 59.4138 30.4H61.5738C61.7871 30.4 61.9604 30.32 62.0938 30.16C62.2538 30 62.3338 29.8133 62.3338 29.6V8.12ZM77.3656 23.4V34H71.7656V8.12H81.7256C85.0323 8.12 86.6856 9.88 86.6856 13.4V16.4C86.6856 18.5333 85.9256 19.8933 84.4056 20.48C85.739 20.96 86.4056 22.0533 86.4056 23.76V34H80.8056V24.2C80.8056 23.6667 80.5523 23.4 80.0456 23.4H77.3656ZM77.3656 11.92V19.48H80.3256C80.539 19.48 80.7123 19.4 80.8456 19.24C81.0056 19.08 81.0856 18.8933 81.0856 18.68V12.72C81.0856 12.5067 81.0056 12.32 80.8456 12.16C80.7123 12 80.539 11.92 80.3256 11.92H77.3656ZM105.281 8.12L99.7213 24.56V34H94.1213V24.56L88.5613 8.12H93.8413L96.9213 18.92L100.001 8.12H105.281Z" fill="white"/>
<path d="M123.56 31.072C123.608 30.992 123.704 30.952 123.848 30.952C123.976 30.952 124.088 31 124.184 31.096C124.28 31.192 124.328 31.304 124.328 31.432C124.328 31.576 124.272 31.704 124.16 31.816C123.392 32.584 122.408 33.184 121.208 33.616C120.008 34.032 118.8 34.24 117.584 34.24C115.856 34.24 114.296 33.832 112.904 33.016C111.512 32.184 110.416 31.04 109.616 29.584C108.832 28.128 108.44 26.472 108.44 24.616C108.44 22.76 108.832 21.08 109.616 19.576C110.416 18.072 111.512 16.888 112.904 16.024C114.312 15.16 115.872 14.728 117.584 14.728C118.896 14.728 120.064 14.928 121.088 15.328C122.128 15.712 123.056 16.368 123.872 17.296C124 17.456 124.064 17.584 124.064 17.68C124.064 17.808 124.016 17.92 123.92 18.016C123.824 18.112 123.704 18.16 123.56 18.16C123.432 18.16 123.328 18.12 123.248 18.04C122.496 17.176 121.664 16.568 120.752 16.216C119.84 15.864 118.784 15.688 117.584 15.688C116.048 15.688 114.656 16.08 113.408 16.864C112.16 17.632 111.176 18.696 110.456 20.056C109.752 21.416 109.4 22.936 109.4 24.616C109.4 26.28 109.752 27.776 110.456 29.104C111.176 30.416 112.152 31.44 113.384 32.176C114.632 32.912 116.032 33.28 117.584 33.28C118.912 33.28 120.088 33.104 121.112 32.752C122.152 32.384 122.968 31.824 123.56 31.072ZM142.028 33.424C142.044 33.456 142.052 33.504 142.052 33.568C142.052 33.712 142.004 33.832 141.908 33.928C141.828 34.024 141.716 34.072 141.572 34.072C141.364 34.072 141.212 33.968 141.116 33.76L138.764 27.544H130.364L127.868 33.784C127.788 33.976 127.636 34.072 127.412 34.072C127.284 34.072 127.172 34.024 127.076 33.928C126.996 33.832 126.956 33.72 126.956 33.592C126.956 33.512 126.964 33.456 126.98 33.424L134.348 14.896C134.444 14.656 134.572 14.536 134.732 14.536C134.876 14.536 134.996 14.664 135.092 14.92L142.028 33.424ZM134.588 16.936L130.748 26.584H138.404L134.756 16.936L134.684 16.576L134.588 16.936ZM154.903 14.8C155.031 14.8 155.143 14.848 155.239 14.944C155.335 15.04 155.383 15.152 155.383 15.28C155.383 15.408 155.335 15.52 155.239 15.616C155.143 15.712 155.031 15.76 154.903 15.76H149.815V33.328C149.815 33.456 149.767 33.568 149.671 33.664C149.575 33.76 149.463 33.808 149.335 33.808C149.207 33.808 149.095 33.76 148.999 33.664C148.903 33.568 148.855 33.456 148.855 33.328V15.76H143.743C143.615 15.76 143.503 15.712 143.407 15.616C143.311 15.52 143.263 15.408 143.263 15.28C143.263 15.152 143.311 15.04 143.407 14.944C143.503 14.848 143.615 14.8 143.743 14.8H154.903Z" fill="white"/>
</svg>
